<?xml version="1.0" encoding="UTF-8"?>
<svg xmlns="http://www.w3.org/2000/svg"
  xmlns:xlink="http://www.w3.org/1999/xlink" viewBox="0 0 24 24" width="24px" height="24px">
  <g id="surface46631794">
    <path style=" stroke:none;fill-rule:nonzero;fill:rgb(58.039218%,84.705883%,17.647059%);fill-opacity:1;" d="M 12 2 C 6.488281 2 2 6.488281 2 12 C 2 17.511719 6.488281 22 12 22 C 17.511719 22 22 17.511719 22 12 C 22 6.488281 17.511719 2 12 2 Z M 12 4 C 16.429688 4 20 7.570312 20 12 C 20 16.429688 16.429688 20 12 20 C 7.570312 20 4 16.429688 4 12 C 4 7.570312 7.570312 4 12 4 Z M 16.292969 8.292969 L 10 14.585938 L 7.707031 12.292969 L 6.292969 13.707031 L 10 17.414062 L 17.707031 9.707031 Z M 16.292969 8.292969 "/>
  </g>
</svg>
